<svg width="24" height="21" viewBox="0 0 24 21" fill="none" xmlns="http://www.w3.org/2000/svg">
<path opacity="0.5" d="M17.0079 1.46143C13.3891 1.46143 12.0741 5.82892 12.0741 5.82892C12.0741 5.82892 10.7591 1.46143 7.14022 1.46143C2.24844 1.46143 0.765131 6.72406 1.55413 9.89148C2.17063 12.2835 3.47768 14.4712 5.33276 16.2162C7.18783 17.9612 9.5197 19.1965 12.0741 19.7872C14.6285 19.1965 16.9603 17.9612 18.8154 16.2162C20.6705 14.4712 21.9775 12.2835 22.594 9.89148C23.383 6.72406 21.8682 1.46143 17.0079 1.46143Z" fill="black" stroke="white" stroke-linecap="round" stroke-linejoin="round"/>
<path d="M17.0079 1.46143C13.3891 1.46143 12.0741 5.82892 12.0741 5.82892C12.0741 5.82892 10.7591 1.46143 7.14022 1.46143C2.24844 1.46143 0.765131 6.72406 1.55413 9.89148C2.17063 12.2835 3.47768 14.4712 5.33276 16.2162C7.18783 17.9612 9.5197 19.1965 12.0741 19.7872C14.6285 19.1965 16.9603 17.9612 18.8154 16.2162C20.6705 14.4712 21.9775 12.2835 22.594 9.89148C23.383 6.72406 21.8682 1.46143 17.0079 1.46143Z" stroke="white" stroke-linecap="round" stroke-linejoin="round"/>
</svg>
